<svg width="724" height="440" viewBox="0 0 724 440" fill="none" xmlns="http://www.w3.org/2000/svg">
<path d="M53.5056 233.804C53.4901 233.775 53.463 233.785 53.401 233.884C53.2421 234.126 53.3429 234.002 53.5056 233.804ZM195.95 51.9814C152.041 87.4356 122.552 141.097 124.166 212.403L247.347 124.372L195.95 51.9814ZM300.903 4.65552C271.182 10.3231 242.343 21.174 216.857 37.1113L273.489 116.87L342.88 144.714L389.807 93.7133L405.276 6.23802C403.232 5.75766 401.173 5.30634 399.106 4.88408C367.573 -1.57182 333.74 -1.60668 300.903 4.65552ZM533.036 120.267C518.132 66.7972 478.765 31.4186 430.083 13.6217L416.092 92.7313L535.579 156.723C533.894 143.726 533.074 131.583 533.036 120.267ZM404.546 115.62L360.105 163.917L375.295 249.102C439.471 235.803 493.37 210.111 529.583 182.587L404.546 115.62ZM157.694 391.272C179.463 394.491 199.859 392.403 217.525 385.451C237.861 377.45 254.701 362.853 265.905 342.389C246.257 341.625 226.969 339.785 208.273 336.845C207.345 338.714 206.382 340.539 205.386 342.319C193.861 362.889 177.33 379.121 157.694 391.272ZM435.92 413.919C442.104 413.396 448.363 412.4 454.607 410.94C474.47 406.291 493.93 396.968 509.841 383.241C525.552 369.686 537.84 351.794 543.632 329.827C547.259 316.102 548.365 300.692 546.223 283.639C535.837 288.75 525.19 293.546 514.327 298.024C503.368 347.035 473.526 385.875 435.92 413.919ZM372.802 336.477C365.566 365.839 352.398 392.996 332.506 415.199C324.263 424.4 314.894 432.731 304.352 440C333.537 436.382 364.905 426.492 393.65 410.636C434.054 388.345 468.914 354.264 484.458 309.34C448.468 321.83 410.716 330.943 372.802 336.477ZM110.709 308.381C96.9897 335.45 75.8579 355.548 50.7431 369.4C35.0918 378.031 17.8888 384.194 0 388.074C29.6171 394.805 61.5918 395.523 91.1449 389.606C129.371 381.951 163.239 363.143 181.763 331.846C156.474 326.238 132.572 318.448 110.709 308.381ZM349.982 253.61L334.92 169.174L266.953 141.901L137.905 234.116C205.667 257.491 271.957 262.402 331.747 255.95C337.896 255.291 343.977 254.501 349.982 253.61ZM77.8727 259.246C134.871 302.402 220.536 320.511 310.609 316.648C404.307 312.621 502.301 284.805 577.74 236.611C608.572 216.916 649.754 184.545 680.906 149.717C703.376 124.59 720.372 98.5383 723.592 75.9959C726.771 53.7227 711.038 34.1652 688.444 22.7758C673.75 15.3708 656.297 11.4446 638.993 12.2968C622.067 13.1297 605.358 18.5746 591.739 29.8864C564.71 52.3281 549.039 98.2652 565.049 177.801C565.985 182.492 564.235 187.094 560.857 190.009C515.275 230.814 433.033 270.845 334.459 281.481C258.868 289.633 173.487 280.634 87.406 241.63C72.3669 234.811 60.8033 232.638 54.2592 234.137C56.2081 239.929 63.5581 248.413 77.8727 259.246ZM650.463 44.5977C660.229 44.5977 668.145 52.5121 668.145 62.2705C668.145 72.0348 660.229 79.9473 650.463 79.9473C640.703 79.9473 632.79 72.0348 632.79 62.2705C632.79 52.5121 640.703 44.5977 650.463 44.5977Z" fill="#33CA7F"/>
</svg>
