<svg width="1726" height="440" viewBox="0 0 1726 440" fill="none" xmlns="http://www.w3.org/2000/svg">
<path d="M811.964 287.132H779.078V377H758.424V287.132H725.978V270.359H811.964V287.132ZM876.124 377L874.952 365.867C872.267 369.822 869.02 372.923 865.211 375.169C861.451 377.415 857.325 378.538 852.833 378.538C848.731 378.538 844.972 377.903 841.554 376.634C838.136 375.364 835.206 373.338 832.765 370.555C830.323 367.82 828.419 364.329 827.052 360.081C825.733 355.784 825.074 350.633 825.074 344.627V297.752H845.436V344.773C845.436 347.996 845.655 350.706 846.095 352.903C846.583 355.101 847.34 356.858 848.365 358.177C849.391 359.544 850.733 360.521 852.394 361.106C854.054 361.692 856.08 361.985 858.473 361.985C860.621 361.985 862.55 361.766 864.259 361.326C866.017 360.887 867.555 360.252 868.873 359.422C869.996 358.689 870.997 357.811 871.876 356.785C872.755 355.76 873.512 354.612 874.146 353.343V297.752H894.581V377H876.124ZM971.412 296.287C974.488 296.287 977.32 296.507 979.908 296.946C982.545 297.337 984.669 297.776 986.28 298.265L983.277 318.553C980.592 317.918 977.833 317.454 975.001 317.161C972.218 316.819 969.557 316.648 967.018 316.648C964.381 316.648 961.988 316.893 959.84 317.381C957.74 317.82 955.86 318.504 954.2 319.432C952.198 320.506 950.489 321.873 949.073 323.533C947.657 325.193 946.485 327.146 945.558 329.393V377H925.196V297.752H944.166L944.972 308.958L945.118 310.716C948.341 306.224 952.198 302.708 956.69 300.169C961.183 297.581 966.09 296.287 971.412 296.287ZM1076 338.182C1076 341.99 1075.73 345.604 1075.2 349.021C1074.66 352.391 1073.88 355.516 1072.85 358.396C1071.73 361.57 1070.24 364.451 1068.38 367.039C1066.58 369.627 1064.43 371.775 1061.94 373.484C1059.69 375.096 1057.15 376.316 1054.32 377.146C1051.54 378.025 1048.46 378.465 1045.09 378.465C1042.02 378.465 1039.21 378.074 1036.67 377.293C1034.18 376.561 1031.93 375.462 1029.93 373.997C1028.86 373.265 1027.86 372.459 1026.93 371.58C1026 370.652 1025.12 369.651 1024.29 368.577L1023.34 377H1005.03V264.5H1025.39V304.93C1026.37 303.807 1027.42 302.781 1028.54 301.854C1029.66 300.877 1030.86 300.047 1032.13 299.363C1033.94 298.338 1035.89 297.581 1037.99 297.093C1040.14 296.556 1042.46 296.287 1044.95 296.287C1048.37 296.287 1051.49 296.727 1054.32 297.605C1057.2 298.484 1059.77 299.754 1062.01 301.414C1063.82 302.684 1065.46 304.222 1066.92 306.028C1068.38 307.786 1069.68 309.715 1070.8 311.814C1072.56 315.184 1073.85 318.968 1074.68 323.167C1075.56 327.366 1076 331.858 1076 336.644V338.182ZM1055.64 336.644C1055.64 334.544 1055.54 332.518 1055.35 330.564C1055.15 328.611 1054.83 326.78 1054.4 325.071C1053.86 323.069 1053.15 321.287 1052.27 319.725C1051.44 318.113 1050.17 316.648 1048.46 315.33C1047.34 314.5 1046.07 313.89 1044.65 313.499C1043.24 313.06 1041.63 312.84 1039.82 312.84C1037.38 312.84 1035.23 313.182 1033.38 313.865C1031.52 314.549 1029.93 315.55 1028.61 316.868C1027.98 317.503 1027.39 318.235 1026.86 319.065C1026.32 319.847 1025.83 320.701 1025.39 321.629V353.196C1025.98 354.417 1026.64 355.54 1027.37 356.565C1028.15 357.542 1029.05 358.396 1030.08 359.129C1031.3 360.057 1032.72 360.765 1034.33 361.253C1035.99 361.741 1037.87 361.985 1039.97 361.985C1041.77 361.985 1043.41 361.766 1044.87 361.326C1046.34 360.887 1047.61 360.276 1048.68 359.495C1050.2 358.421 1051.42 357.029 1052.34 355.32C1053.32 353.562 1054.05 351.585 1054.54 349.388C1054.93 347.776 1055.2 346.019 1055.35 344.114C1055.54 342.21 1055.64 340.232 1055.64 338.182V336.644ZM1091.9 336.644C1091.9 330.882 1092.73 325.56 1094.39 320.677C1096.05 315.745 1098.49 311.473 1101.71 307.859C1104.88 304.246 1108.77 301.414 1113.36 299.363C1117.99 297.312 1123.29 296.287 1129.25 296.287C1135.21 296.287 1140.5 297.312 1145.14 299.363C1149.78 301.414 1153.71 304.246 1156.93 307.859C1160.11 311.473 1162.53 315.745 1164.19 320.677C1165.85 325.56 1166.68 330.882 1166.68 336.644V338.182C1166.68 343.992 1165.85 349.363 1164.19 354.295C1162.53 359.178 1160.11 363.426 1156.93 367.039C1153.76 370.652 1149.85 373.484 1145.22 375.535C1140.58 377.537 1135.3 378.538 1129.4 378.538C1123.44 378.538 1118.12 377.537 1113.43 375.535C1108.79 373.484 1104.88 370.652 1101.71 367.039C1098.49 363.426 1096.05 359.178 1094.39 354.295C1092.73 349.363 1091.9 343.992 1091.9 338.182V336.644ZM1112.26 338.182C1112.26 341.502 1112.57 344.627 1113.21 347.557C1113.84 350.438 1114.84 352.952 1116.21 355.101C1117.58 357.298 1119.34 359.031 1121.49 360.301C1123.68 361.57 1126.32 362.205 1129.4 362.205C1132.37 362.205 1134.94 361.57 1137.09 360.301C1139.23 359.031 1140.99 357.298 1142.36 355.101C1143.68 352.952 1144.65 350.438 1145.29 347.557C1145.92 344.627 1146.24 341.502 1146.24 338.182V336.644C1146.24 333.421 1145.92 330.369 1145.29 327.488C1144.65 324.607 1143.68 322.068 1142.36 319.871C1140.99 317.674 1139.23 315.94 1137.09 314.671C1134.94 313.401 1132.33 312.767 1129.25 312.767C1126.22 312.767 1123.63 313.401 1121.49 314.671C1119.34 315.94 1117.58 317.674 1116.21 319.871C1114.84 322.068 1113.84 324.607 1113.21 327.488C1112.57 330.369 1112.26 333.421 1112.26 336.644V338.182ZM1262.4 287.132H1229.52V377H1208.86V287.132H1176.42V270.359H1262.4V287.132ZM1326.56 377L1325.39 365.867C1322.71 369.822 1319.46 372.923 1315.65 375.169C1311.89 377.415 1307.76 378.538 1303.27 378.538C1299.17 378.538 1295.41 377.903 1291.99 376.634C1288.58 375.364 1285.65 373.338 1283.2 370.555C1280.76 367.82 1278.86 364.329 1277.49 360.081C1276.17 355.784 1275.51 350.633 1275.51 344.627V297.752H1295.88V344.773C1295.88 347.996 1296.09 350.706 1296.53 352.903C1297.02 355.101 1297.78 356.858 1298.8 358.177C1299.83 359.544 1301.17 360.521 1302.83 361.106C1304.49 361.692 1306.52 361.985 1308.91 361.985C1311.06 361.985 1312.99 361.766 1314.7 361.326C1316.46 360.887 1317.99 360.252 1319.31 359.422C1320.44 358.689 1321.44 357.811 1322.32 356.785C1323.19 355.76 1323.95 354.612 1324.59 353.343V297.752H1345.02V377H1326.56ZM1421.85 296.287C1424.93 296.287 1427.76 296.507 1430.35 296.946C1432.98 297.337 1435.11 297.776 1436.72 298.265L1433.72 318.553C1431.03 317.918 1428.27 317.454 1425.44 317.161C1422.66 316.819 1420 316.648 1417.46 316.648C1414.82 316.648 1412.43 316.893 1410.28 317.381C1408.18 317.82 1406.3 318.504 1404.64 319.432C1402.64 320.506 1400.93 321.873 1399.51 323.533C1398.1 325.193 1396.92 327.146 1396 329.393V377H1375.64V297.752H1394.61L1395.41 308.958L1395.56 310.716C1398.78 306.224 1402.64 302.708 1407.13 300.169C1411.62 297.581 1416.53 296.287 1421.85 296.287ZM1492.38 278.343V297.752H1521.97V312.767H1492.38V346.824C1492.38 349.705 1492.7 352.122 1493.34 354.075C1494.02 355.979 1494.97 357.493 1496.19 358.616C1497.41 359.788 1498.88 360.618 1500.59 361.106C1502.34 361.595 1504.3 361.839 1506.45 361.839C1508.01 361.839 1509.6 361.766 1511.21 361.619C1512.87 361.473 1514.45 361.277 1515.97 361.033C1517.43 360.838 1518.8 360.618 1520.07 360.374C1521.39 360.13 1522.51 359.886 1523.44 359.642L1525.42 373.631C1524 374.461 1522.34 375.193 1520.44 375.828C1518.53 376.414 1516.5 376.902 1514.36 377.293C1512.21 377.684 1509.96 377.977 1507.62 378.172C1505.32 378.416 1503.05 378.538 1500.81 378.538C1496.46 378.538 1492.51 377.977 1488.94 376.854C1485.43 375.682 1482.42 373.875 1479.93 371.434C1477.39 369.041 1475.44 365.989 1474.07 362.278C1472.71 358.519 1472.02 354.026 1472.02 348.802V312.767H1453.93V297.752H1472.02V278.343H1492.38ZM1549.37 264.5H1593.68V360.447H1616.38V377H1549.37V360.447H1573.1V281.126H1549.37V264.5ZM1673.66 378.465C1667.55 378.465 1662.01 377.464 1657.03 375.462C1652.05 373.46 1647.78 370.726 1644.21 367.259C1640.65 363.841 1637.89 359.812 1635.94 355.174C1634.03 350.486 1633.08 345.481 1633.08 340.159V337.229C1633.08 331.175 1634.03 325.657 1635.94 320.677C1637.84 315.647 1640.5 311.326 1643.92 307.713C1647.34 304.1 1651.39 301.292 1656.08 299.29C1660.77 297.288 1665.87 296.287 1671.39 296.287C1677.1 296.287 1682.18 297.239 1686.62 299.144C1691.11 300.999 1694.92 303.636 1698.05 307.054C1701.12 310.472 1703.47 314.598 1705.08 319.432C1706.69 324.217 1707.5 329.515 1707.5 335.325V343.968H1653.74V344.188C1654.42 347.361 1655.3 349.925 1656.37 351.878C1657.45 353.782 1658.89 355.516 1660.69 357.078C1662.55 358.689 1664.67 359.935 1667.07 360.813C1669.46 361.692 1672.07 362.132 1674.9 362.132C1678.91 362.132 1682.79 361.375 1686.55 359.861C1690.31 358.348 1693.36 356.077 1695.7 353.05L1705.88 364.036C1703.3 367.698 1699.2 371.019 1693.58 373.997C1687.96 376.976 1681.32 378.465 1673.66 378.465ZM1671.24 312.767C1668.95 312.767 1666.85 313.182 1664.94 314.012C1663.04 314.793 1661.38 315.94 1659.96 317.454C1658.5 318.968 1657.28 320.774 1656.3 322.874C1655.32 324.974 1654.59 327.317 1654.1 329.905H1687.5V328.294C1687.5 326.146 1687.11 324.119 1686.33 322.215C1685.55 320.311 1684.47 318.65 1683.11 317.234C1681.74 315.867 1680.05 314.793 1678.05 314.012C1676.1 313.182 1673.83 312.767 1671.24 312.767Z" fill="#F7EBE8"/>
<path d="M53.5056 233.804C53.4901 233.775 53.463 233.785 53.401 233.884C53.2421 234.126 53.3429 234.002 53.5056 233.804ZM195.95 51.9814C152.041 87.4356 122.552 141.097 124.166 212.403L247.347 124.372L195.95 51.9814ZM300.903 4.65552C271.182 10.3231 242.343 21.174 216.857 37.1113L273.489 116.87L342.88 144.714L389.807 93.7133L405.276 6.23802C403.232 5.75766 401.173 5.30634 399.106 4.88408C367.573 -1.57182 333.74 -1.60668 300.903 4.65552ZM533.036 120.267C518.132 66.7972 478.765 31.4186 430.083 13.6217L416.092 92.7313L535.579 156.723C533.894 143.726 533.074 131.583 533.036 120.267ZM404.546 115.62L360.105 163.917L375.295 249.102C439.471 235.803 493.37 210.111 529.583 182.587L404.546 115.62ZM157.694 391.272C179.463 394.491 199.859 392.403 217.525 385.451C237.861 377.45 254.701 362.853 265.905 342.389C246.257 341.625 226.969 339.785 208.273 336.845C207.345 338.714 206.382 340.539 205.386 342.319C193.861 362.889 177.33 379.121 157.694 391.272ZM435.92 413.919C442.104 413.396 448.363 412.4 454.607 410.94C474.47 406.291 493.93 396.968 509.841 383.241C525.552 369.686 537.84 351.794 543.632 329.827C547.259 316.102 548.365 300.692 546.223 283.639C535.837 288.75 525.19 293.546 514.327 298.024C503.368 347.035 473.526 385.875 435.92 413.919ZM372.802 336.477C365.566 365.839 352.398 392.996 332.506 415.199C324.263 424.4 314.894 432.731 304.352 440C333.537 436.382 364.905 426.492 393.65 410.636C434.054 388.345 468.914 354.264 484.458 309.34C448.468 321.83 410.716 330.943 372.802 336.477ZM110.709 308.381C96.9897 335.45 75.8579 355.548 50.7431 369.4C35.0918 378.031 17.8888 384.194 0 388.074C29.6171 394.805 61.5918 395.523 91.1449 389.606C129.371 381.951 163.239 363.143 181.763 331.846C156.474 326.238 132.572 318.448 110.709 308.381ZM349.982 253.61L334.92 169.174L266.953 141.901L137.905 234.116C205.667 257.491 271.957 262.402 331.747 255.95C337.896 255.291 343.977 254.501 349.982 253.61ZM77.8727 259.246C134.871 302.402 220.536 320.511 310.609 316.648C404.307 312.621 502.301 284.805 577.74 236.611C608.572 216.916 649.754 184.545 680.906 149.717C703.376 124.59 720.372 98.5383 723.592 75.9959C726.771 53.7227 711.038 34.1652 688.444 22.7758C673.75 15.3708 656.297 11.4446 638.993 12.2968C622.067 13.1297 605.358 18.5746 591.739 29.8864C564.71 52.3281 549.039 98.2652 565.049 177.801C565.985 182.492 564.235 187.094 560.857 190.009C515.275 230.814 433.033 270.845 334.459 281.481C258.868 289.633 173.487 280.634 87.406 241.63C72.3669 234.811 60.8033 232.638 54.2592 234.137C56.2081 239.929 63.5581 248.413 77.8727 259.246ZM650.463 44.5977C660.229 44.5977 668.145 52.5121 668.145 62.2705C668.145 72.0348 660.229 79.9473 650.463 79.9473C640.703 79.9473 632.79 72.0348 632.79 62.2705C632.79 52.5121 640.703 44.5977 650.463 44.5977Z" fill="#33CA7F"/>
</svg>
